<?xml version="1.0" standalone="no"?>
<!DOCTYPE svg PUBLIC "-//W3C//DTD SVG 20010904//EN"
 "http://www.w3.org/TR/2001/REC-SVG-20010904/DTD/svg10.dtd">
<svg version="1.0" xmlns="http://www.w3.org/2000/svg"
 width="558.000000pt" height="265.000000pt" viewBox="0 0 558.000000 265.000000"
 preserveAspectRatio="xMidYMid meet">
<metadata>
Created by potrace 1.16, written by Peter Selinger 2001-2019
</metadata>
<g transform="translate(0.000000,265.000000) scale(0.100000,-0.100000)"
fill="#000000" stroke="none">
<path d="M4040 2449 c-366 -43 -668 -78 -672 -78 -5 -1 -8 -44 -8 -96 0 -69
-3 -95 -12 -95 -18 0 -626 -69 -665 -76 l-33 -5 0 -94 c0 -84 -2 -95 -17 -95
-10 0 -112 -11 -228 -25 -115 -14 -216 -25 -222 -25 -10 0 -13 -26 -13 -95 0
-52 -3 -95 -6 -95 -7 0 -246 -28 -301 -36 l-43 -5 0 -93 0 -93 -47 -6 c-27 -3
-92 -11 -145 -18 l-98 -11 0 -93 0 -92 -37 -6 c-21 -3 -73 -9 -115 -13 l-78
-7 0 -93 c0 -106 7 -99 -105 -109 -112 -10 -105 -3 -105 -109 l0 -93 -87 -9
-88 -9 -3 -92 c-3 -103 3 -97 -94 -108 l-58 -6 0 -94 0 -94 -70 -7 -71 -7 3
-105 3 -106 135 -78 135 -78 133 0 c100 0 278 17 700 65 312 36 584 68 605 71
l37 6 0 92 0 93 72 9 73 9 3 91 c3 101 5 103 77 104 73 1 75 3 75 105 l0 93
68 7 c120 12 112 4 112 110 l0 92 83 7 c125 11 117 3 117 110 l0 93 120 13
120 13 0 93 0 92 28 6 c15 3 78 10 140 17 l112 12 0 93 0 92 28 6 c15 3 96 13
180 22 l152 17 0 92 0 93 33 5 c17 3 123 16 235 28 l202 23 0 93 c0 88 1 93
23 97 25 6 655 76 675 76 10 0 12 25 10 107 l-3 107 -150 88 c-137 80 -154 87
-200 87 -27 -1 -349 -37 -715 -80z m886 -10 c154 -89 168 -99 139 -99 -11 0
-325 -36 -699 -79 l-678 -79 -145 85 c-80 46 -147 82 -149 80 -3 -3 60 -42
140 -88 l146 -84 0 -88 0 -88 -27 15 c-16 9 -84 48 -153 88 l-125 73 -3 87
c-3 87 -3 87 23 94 21 5 1318 159 1376 163 9 0 79 -35 155 -80z m174 -194 c0
-80 -1 -85 -22 -89 -13 -3 -169 -21 -348 -41 -179 -20 -480 -54 -669 -76 -190
-21 -350 -39 -358 -39 -10 0 -13 21 -13 85 0 47 3 85 8 86 4 0 306 35 672 78
366 43 680 79 698 80 l32 1 0 -85z m-1588 -161 c82 -48 148 -88 146 -89 -9 -8
-669 -77 -689 -71 -35 9 -297 166 -279 166 11 1 572 67 664 79 5 0 76 -38 158
-85z m-679 -102 c71 -41 131 -80 133 -87 3 -6 4 -46 2 -87 l-3 -76 -150 87
-150 87 -3 88 -3 87 23 -12 c13 -6 81 -46 151 -87z m1557 -7 l0 -84 -32 -6
c-18 -3 -197 -23 -398 -46 -201 -22 -500 -55 -664 -74 -165 -19 -303 -35 -308
-35 -5 0 -7 39 -6 87 l3 87 660 77 c363 42 679 77 703 78 l42 1 0 -85z m-1587
-162 l151 -88 -189 -22 c-290 -33 -249 -39 -415 58 -115 67 -140 85 -120 87
14 2 111 14 215 26 105 13 194 24 199 25 4 0 76 -38 159 -86z m-457 -65 l144
-83 0 -87 0 -86 -150 86 -150 87 0 83 c0 45 3 82 7 82 3 0 71 -37 149 -82z
m1564 -13 c0 -80 -1 -85 -22 -90 -13 -3 -144 -18 -293 -35 -148 -16 -446 -50
-662 -75 -216 -25 -399 -45 -408 -45 -12 0 -15 15 -15 85 0 47 1 85 3 85 16 4
1349 158 1370 159 l27 1 0 -85z m-1577 -167 l142 -83 -40 -6 c-22 -4 -97 -12
-166 -19 l-126 -13 -146 84 c-103 59 -140 85 -125 87 59 10 238 30 276 31 37
1 63 -11 185 -81z m-315 -67 l122 -72 0 -79 c0 -44 -3 -80 -7 -80 -5 0 -73 38
-153 84 l-145 84 -3 87 -3 87 33 -20 c18 -11 88 -52 156 -91z m1542 5 l0 -84
-37 -6 c-21 -3 -141 -18 -268 -31 -126 -14 -423 -48 -660 -75 -236 -28 -433
-50 -437 -50 -5 0 -8 38 -8 85 0 47 3 85 8 85 4 1 306 36 672 79 366 43 680
79 698 80 l32 1 0 -84z m-1582 -168 l144 -83 -131 -14 -131 -14 -146 84 -146
84 89 11 c170 21 161 23 321 -68z m-276 -41 l143 -83 3 -82 c2 -45 1 -82 -1
-82 -3 0 -69 38 -148 84 l-144 84 -3 81 c-2 45 -1 81 2 81 2 0 69 -37 148 -83z
m1568 -11 l0 -84 -37 -6 c-21 -3 -99 -12 -173 -21 -74 -8 -369 -42 -655 -75
-286 -33 -523 -60 -527 -60 -10 0 -10 170 0 170 4 1 309 36 677 79 369 44 680
79 693 80 21 1 22 -2 22 -83z m-1581 -168 l141 -83 -101 -12 -102 -12 -144 84
-145 83 44 6 c23 3 54 7 68 10 81 12 95 7 239 -76z m1341 -50 l0 -83 -688 -78
c-378 -43 -693 -78 -699 -77 -9 0 -13 23 -13 80 0 44 1 80 3 81 10 3 1339 157
1365 158 l32 1 0 -82z"/>
</g>
</svg>
