<svg xmlns="http://www.w3.org/2000/svg" width="16" height="16" viewBox="0 0 16 16"><defs><style>.a{isolation:isolate}.b{fill:#f72400}.c{fill:#f12300}.d{fill:#ee2300}.e{fill:#f64200}.f{fill:#f04000}.g{fill:#ee3f00}.h{fill:#f45c00}.i{fill:#ed5900}.j{fill:#eb5800}.k{fill:#f67600}.l{fill:#f07300}.m{fill:#ee7200}.n{fill:#f48a00}.o{fill:#ed8600}.p{fill:#eb8500}.q{fill:#f5a400}.r{fill:#ef9f00}.s{fill:#ec9d00}.t{fill:#f4b800}.u{fill:#edb200}.v{fill:#ebb100}.w{fill:#f4ce00}.x{fill:#edc800}.y{fill:#ebc600}.z{fill:#f5e300}.aa{fill:#efdd00}.ab{fill:#ecda00}.ac{fill:#f5f500}.ad{fill:#efef00}.ae{fill:#ecec00}</style></defs><title>icon-stack</title><g class="a"><path class="b" d="M6.41 11.07l-.01.61-4.66.58.01-.62 4.66-.57z"/><path class="c" d="M1.74 12.26l-1-.66.01-.62 1 .66-.01.62z"/><path class="d" d="M1.75 11.64l-1-.66 4.65-.58 1.01.67-4.66.57z"/></g><g class="a"><path class="e" d="M6.92 10.38l-.01.62-4.7.58.01-.62 4.7-.58z"/><path class="f" d="M2.21 11.58l-1.06-.7.01-.61 1.06.69-.01.62z"/><path class="g" d="M2.22 10.96l-1.06-.69 4.7-.58 1.06.69-4.7.58z"/></g><g class="a"><path class="h" d="M7.49 9.69l-.02.62-4.79.59.01-.62 4.8-.59z"/><path class="i" d="M2.68 10.9l-1.04-.68.01-.62 1.04.68-.01.62z"/><path class="j" d="M2.69 10.28L1.65 9.6l4.8-.59 1.04.68-4.8.59z"/></g><g class="a"><path class="k" d="M8.07 9.05l-.01.57-4.79.58.01-.57 4.79-.58z"/><path class="l" d="M3.27 10.2l-1.02-.67.01-.57 1.02.67-.01.57z"/><path class="m" d="M3.28 9.63l-1.02-.67 4.78-.58 1.03.67-4.79.58z"/></g><g class="a"><path class="n" d="M8.76 8.36l-.01.62L4 9.56l.01-.62 4.75-.58z"/><path class="o" d="M4 9.56l-1.04-.68.01-.63 1.04.69-.01.62z"/><path class="p" d="M4.01 8.94l-1.04-.69 4.75-.58 1.04.69-4.75.58z"/></g><g class="a"><path class="q" d="M9.36 7.65l-.01.62-4.58.57.01-.62 4.58-.57z"/><path class="r" d="M4.77 8.84l-1.03-.68.01-.62 1.03.68-.01.62z"/><path class="s" d="M4.78 8.22l-1.03-.68 4.59-.56 1.02.67-4.58.57z"/></g><g class="a"><path class="t" d="M10.35 6.92l-.01.62-4.67.57.01-.62 4.67-.57z"/><path class="u" d="M5.67 8.11l-1.06-.69.01-.62 1.06.69-.01.62z"/><path class="v" d="M5.68 7.49L4.62 6.8l4.67-.58 1.06.7-4.67.57z"/></g><g class="a"><path class="w" d="M11.64 6.15l-.01.62-4.76.58.01-.62 4.76-.58z"/><path class="x" d="M6.87 7.35l-1.03-.67.01-.62 1.03.67-.01.62z"/><path class="y" d="M6.88 6.73l-1.03-.67 4.76-.59 1.03.68-4.76.58z"/></g><g class="a"><path class="z" d="M13.29 5.33l-.01.62-4.76.59.01-.63 4.76-.58z"/><path class="aa" d="M8.52 6.54l-1.03-.68.01-.62 1.03.67-.01.63z"/><path class="ab" d="M8.53 5.91L7.5 5.24l4.76-.59 1.03.68-4.76.58z"/></g><g class="a"><path class="ac" d="M15.28 4.46l-.01.62-4.39.54.01-.62 4.39-.54z"/><path class="ad" d="M10.88 5.62l-1.03-.67.01-.62 1.03.67-.01.62z"/><path class="ae" d="M10.89 5l-1.03-.67 4.39-.54 1.03.67-4.39.54z"/></g></svg>